<svg width="32" height="32" viewBox="0 0 32 32" fill="none" xmlns="http://www.w3.org/2000/svg">
<path fill-rule="evenodd" clip-rule="evenodd" d="M0.558594 8.15982L5.77369 14.9709L1.13728 18.3764C2.15344 19.7042 1.93055 19.4126 4.61355 22.9172L9.24857 19.5116L12.7262 24.0524L8.08982 27.4579L11.5661 32L20.8375 25.1875L5.195 4.75427L0.558594 8.15982Z" fill="#0057d7"/>
<path fill-rule="evenodd" clip-rule="evenodd" d="M3.50768 30.72L8.18599 27.3502L4.67691 22.8572L0 26.227L3.50768 30.72Z" fill="#0057d7"/>
<path fill-rule="evenodd" clip-rule="evenodd" d="M19.8334 11.2936L16.3571 6.76575L11.7207 10.1617L27.3632 30.5372L31.9996 27.1413L26.7845 20.3494L31.4209 16.9535C30.4048 15.6295 30.6277 15.9203 27.9447 12.4256L23.3096 15.8229L19.8334 11.2936Z" fill="#0057d7"/>
<path fill-rule="evenodd" clip-rule="evenodd" d="M21.0234 3.36979L24.5311 7.86285L29.2094 4.49306L25.7017 0L21.0234 3.36979Z" fill="#0057d7"/>
</svg>
